<?xml version="1.0" encoding="UTF-8" standalone="no"?><!DOCTYPE svg PUBLIC "-//W3C//DTD SVG 1.1//EN" "http://www.w3.org/Graphics/SVG/1.1/DTD/svg11.dtd"><svg width="100%" height="100%" viewBox="0 0 576 526" version="1.1" xmlns="http://www.w3.org/2000/svg" xmlns:xlink="http://www.w3.org/1999/xlink" xml:space="preserve" xmlns:serif="http://www.serif.com/" style="fill-rule:evenodd;clip-rule:evenodd;stroke-linejoin:round;stroke-miterlimit:2;"><rect id="Artboard9" x="0" y="0" width="575.09" height="525.692" style="fill:none;"/><path d="M296.022,78.831c45.833,-0.527 112.372,14.649 126.372,24.335c29.4,20.338 49.243,51.39 45.198,76.991c-3.876,24.532 -37.969,64.638 -54.627,73.508c-15.655,8.336 -70.542,23.012 -116.017,21.344c-66.116,-2.425 -122.604,-17.699 -150.794,-44.792c-20.811,-20.001 -17.838,-39.589 -17.696,-58.251c0.308,-40.364 35.775,-67.788 63.548,-77.249c18.429,-6.278 66.099,-15.449 104.016,-15.885Zm85.256,63.305c-3.257,0.748 2.249,20.807 -7.98,27.952c-12.909,9.017 -29.018,19.119 -74.45,18.211c-51.546,-1.031 -68.229,-20.513 -77.641,-32.211c-4.706,-5.85 -4.813,-22.913 -8.848,-24.541c-5.512,-2.223 -26.714,21.245 -26.714,35.299c0,30.275 45.331,57.816 106.761,57.816c61.43,0 116.932,-25.244 116.932,-55.519c0,-14.054 -22.899,-28.192 -28.06,-27.007Z" style="fill:#cec4a3;"/><g><path d="M159.939,383.175c0,0.19 -0.027,0.34 -0.082,0.449l-0.734,2.406l0.082,2.079l-0.612,1.101c-0.109,-0.054 -0.299,-0.082 -0.571,-0.082c-0.163,0 -0.313,0.136 -0.449,0.408c-0.136,0.272 -0.204,0.584 -0.204,0.938c0,0.109 0.027,0.19 0.082,0.245c0.544,0.897 0.815,1.481 0.815,1.753c0,0.217 -0.054,0.408 -0.163,0.571c-0.571,0.544 -0.965,1.155 -1.182,1.835l-0.897,0.408l0.245,0.285l-0.245,0.245l0.652,0.489l-0.082,0.245l-0.734,0.693l-0.938,1.549l-0.652,0.693c-0.381,-0.381 -0.693,-0.571 -0.938,-0.571c-0.489,0 -0.734,0.272 -0.734,0.815c0,0.217 0.217,0.612 0.652,1.182c-0.843,1.413 -2.229,2.718 -4.159,3.914c-2.011,1.278 -4.091,2.433 -6.238,3.466c-2.147,1.033 -3.805,1.658 -4.974,1.876l-0.815,0.163c-2.039,0.381 -3.316,0.571 -3.833,0.571l-0.163,0l-1.59,-0.082l-1.019,0.163l-1.509,-0.897l-1.142,0.489c-0.516,0.353 -0.883,0.53 -1.101,0.53l-0.326,0c-0.217,-0.516 -0.435,-0.89 -0.652,-1.121c-0.217,-0.231 -0.557,-0.442 -1.019,-0.632c-1.685,0.87 -2.99,1.305 -3.914,1.305c-0.326,0 -0.639,-0.109 -0.938,-0.326c-0.598,0 -0.924,-0.027 -0.979,-0.082l-2.854,-0.815l-2.406,0.082l-0.938,-0.775l-1.346,0.163l-1.142,-0.163l-1.672,-0.489l-5.178,-1.182l-1.427,-1.142l-1.835,-0.693l-1.916,-1.998c-0.435,-0.326 -1.074,-0.489 -1.916,-0.489l-1.101,-1.264c0.217,-0.516 0.326,-0.911 0.326,-1.182c0,-0.843 -1.006,-1.427 -3.017,-1.753l0,-0.326l-0.489,-0.163l-0.489,-0.897l-0.408,-0.449l0,-0.897l-0.856,-2.446l-0.163,-0.815l-0.652,-3.588l0.245,-3.506l0.326,-1.019l0.245,-2.243l1.998,-5.26l0.245,-0.938c0.571,-1.413 1.468,-2.46 2.691,-3.14l0,-0.53l2.079,-2.324c0.326,0.109 0.516,0.163 0.571,0.163c0.408,0 0.693,-0.163 0.856,-0.489l0.571,-1.753l0.775,-1.019c0.299,-0.598 0.707,-1.047 1.223,-1.346l1.264,-0.571l1.101,-1.346l2.569,-1.753c1.712,-1.114 2.691,-1.672 2.936,-1.672l0.652,0.245l1.101,-1.305l0.734,-0.163l7.706,-3.017c0.435,-0.217 0.965,-0.326 1.59,-0.326c0.571,0 1.264,0.163 2.079,0.489l0.652,-0.245l0.245,-0.775l1.182,0.163l0.652,0.122l0.204,0l1.998,-0.53l3.18,0.163l1.549,-0.326l1.346,0.163l1.264,-0.082l1.427,0.489l2.406,0.449l1.753,0.979l5.015,1.835l0.489,0.449l0.938,0.571l0,0.408l-0.163,0.082c-0.217,0.217 -0.326,0.421 -0.326,0.612c0,0.19 0.299,0.462 0.897,0.815l0.163,-0.326c0.625,0 1.101,0.299 1.427,0.897c0,0.625 0.054,1.04 0.163,1.244c0.109,0.204 0.367,0.496 0.775,0.877c0.408,-0.245 0.788,-0.367 1.142,-0.367c0.707,0 1.291,0.285 1.753,0.856l0.693,0.897l1.468,1.346l0.204,0.938l0.979,1.223l0.245,1.101c-0.435,0.571 -0.652,1.047 -0.652,1.427c0,0.163 0.027,0.299 0.082,0.408l2.487,2.528l0.163,0.897l0.693,1.916c0,0.082 -0.054,0.421 -0.163,1.019l-0.612,0.326l0,0.408l0.693,0.082l0.163,0.938l0.408,3.058Zm-6.524,-6.891c0,-1.223 -0.775,-1.957 -2.324,-2.202l-0.245,-2.243l-1.998,-3.099l-0.326,-1.264l-0.53,-0.082l-0.734,-0.897l-1.835,-2.161l-1.672,-1.101l-1.672,-1.346l-0.775,-0.245l-0.489,-0.897l-0.815,0c-0.761,0 -1.346,-0.15 -1.753,-0.449l-3.588,-1.998l-3.588,-0.489l-2.609,-0.489l-2.487,0.082l-1.916,0l-2.039,0.571l-1.835,0.245l-1.835,1.101l-0.979,-0.245l-0.082,0l-1.019,0.326l-4.526,2.487l-1.06,0.163c-0.761,1.087 -1.427,1.726 -1.998,1.916l-1.101,0.449l-3.588,3.506l-0.652,0.489c-0.979,0.734 -1.984,2.066 -3.017,3.996l-0.408,0.775l-0.856,0.163l-0.408,0.815l-0.489,2.12l-0.53,0.571l-0.245,0.815l-1.672,-0.245c-0.136,0.462 -0.279,0.768 -0.428,0.917c-0.15,0.15 -0.415,0.319 -0.795,0.51l-0.122,0.408c1.006,0.625 1.509,1.237 1.509,1.835l-0.082,2.854l0.612,4.159l-0.082,1.019l1.305,2.161c-0.652,0.408 -0.979,0.802 -0.979,1.182c0,0.245 0.129,0.482 0.387,0.714c0.258,0.231 0.578,0.347 0.958,0.347c0.136,-0.027 0.251,-0.048 0.347,-0.061c0.095,-0.014 0.251,-0.02 0.469,-0.02l1.509,1.835c-0.326,0.489 -0.489,0.802 -0.489,0.938l0.326,0.652l0.326,0l1.672,1.59l2.161,1.182l3.017,2.487l2.324,0.449l1.264,1.305l4.24,1.59l3.506,1.509l1.182,-0.082l7.502,1.101l1.182,0.082l0.938,-0.082l1.59,-0.408l4.077,0.245l1.753,-0.367l3.099,-1.223l1.142,-0.326l0.612,0.489c0.843,-0.245 1.305,-0.503 1.386,-0.775l0.367,-1.305l4.077,-3.506l1.672,-2.936l0.652,-1.182l0.53,0l0.489,-1.06l-0.245,-0.449l0.245,-0.734l0.163,-3.343l0.652,-1.59l0.204,-1.182l0.571,-0.408l0.408,-2.487c-0.544,-0.979 -0.815,-1.74 -0.815,-2.283l0,-0.082l0.163,-3.914l-0.082,-1.264c0.815,-0.516 1.223,-1.06 1.223,-1.631Z" style="fill:#564536;fill-rule:nonzero;"/><path d="M209.989,389.535c0,1.604 -0.68,3.411 -2.039,5.423l-0.571,-0.163c-0.489,0.598 -0.734,1.128 -0.734,1.59c0,0.462 0.082,1.019 0.245,1.672l-0.245,0.408l-0.163,0.938l-0.938,1.06l-1.672,2.283l-1.998,1.223l-4.363,4.037l-1.916,0.979l-3.506,1.427l-3.14,0.693l-3.629,0.571l-0.082,0l-2.569,-0.693l-1.753,0l-5.341,-1.386l-3.343,-0.245l-2.079,-0.693l-3.751,1.509l-0.53,0.163l-0.489,-0.082l-0.082,-0.897l-0.082,-1.019l1.101,-0.938c0.815,-0.571 1.25,-1.006 1.305,-1.305l0.449,-0.938l0.652,-0.979l-0.082,-4.607c0.082,-0.489 0.238,-0.849 0.469,-1.08c0.231,-0.231 0.632,-0.347 1.203,-0.347l0.245,-1.264l-0.082,-0.652l-1.59,-0.652l-0.082,-0.53l0.245,-5.912l-0.163,-2.243l0.408,-0.693l0.693,0.082l0.082,-0.979l-1.101,-0.856l-0.082,-0.571l0.082,-0.489l0.163,-1.101l-0.571,-3.506l0.082,-2.936l-0.082,-1.753c0,-0.109 0.027,-0.19 0.082,-0.245l0.734,-1.346c0.109,-0.109 0.163,-0.299 0.163,-0.571c0,-0.571 -0.326,-1.155 -0.979,-1.753l0,-1.346l-0.082,-7.176l-0.245,-1.101l0.326,-4.485l-0.326,-2.324l0,-1.672l1.142,-1.753l-0.489,-1.019c-0.326,-0.571 -0.489,-1.019 -0.489,-1.346l0.082,-0.652c1.006,-0.462 1.509,-0.992 1.509,-1.59c0,-0.761 -0.503,-1.182 -1.509,-1.264l-0.775,-1.916l0.612,-4.322l-0.775,-1.59c-0.381,-0.516 -0.598,-0.938 -0.652,-1.264l1.101,-0.815l1.631,-1.264l2.12,-0.612l1.509,-0.734c0.245,-0.163 0.544,-0.245 0.897,-0.245c0.435,0 0.822,0.136 1.162,0.408c0.34,0.272 0.51,0.584 0.51,0.938c0,0.272 -0.245,0.965 -0.734,2.079l-0.449,0.815c0.68,0.761 1.019,1.318 1.019,1.672l0,0.163l-0.489,1.835l0.082,1.835l-0.612,1.59l0.449,5.015l-1.019,1.672c-0.163,0.326 -0.245,0.639 -0.245,0.938c0,0.163 0.027,0.272 0.082,0.326l1.346,1.835l-0.612,6.442l0.612,3.506c0,0.652 -0.421,1.128 -1.264,1.427l-1.019,0.326l0.082,1.346c0.027,0.598 0.129,1.006 0.306,1.223c0.177,0.217 0.605,0.53 1.284,0.938l0.082,0.897l0.285,2.854c0,0.381 -0.095,0.829 -0.285,1.346l-1.142,2.569c0,0.353 0.435,0.72 1.305,1.101c0.381,0.163 0.693,0.245 0.938,0.245c0.598,0 1.291,-0.449 2.079,-1.346c0.544,0.163 0.938,0.245 1.182,0.245c0.489,0 1.441,-0.245 2.854,-0.734l3.751,-1.264c0.353,0.68 0.788,1.019 1.305,1.019c0.571,0 1.019,-0.054 1.346,-0.163l0.163,-0.856l1.019,0.082l2.079,-0.082c0.353,0 0.693,0.204 1.019,0.612c2.147,0.054 3.778,0.217 4.893,0.489c1.359,0.272 2.317,0.625 2.874,1.06c0.557,0.435 0.917,1.142 1.08,2.12l1.223,0.245c0.299,-0.516 0.639,-0.775 1.019,-0.775c0.217,0 0.353,0.054 0.408,0.163l0.693,0.938l1.223,1.101l0.775,1.753l1.346,1.386l0.326,0.693l0.571,2.895l0.775,1.59c0.109,0.353 0.163,0.802 0.163,1.346Zm-7.094,3.996l-0.612,-5.26l0.082,-1.386c0,-0.571 -0.109,-0.911 -0.326,-1.019l-1.672,-1.182l-0.815,-1.509c-0.408,-0.625 -1.142,-1.237 -2.202,-1.835l-3.221,-1.835l-2.039,-1.06l-5.504,-0.53l-3.262,-0.571c-0.843,0 -1.536,0.136 -2.079,0.408l-3.914,2.283l-2.773,1.509c-0.272,0.462 -0.408,0.924 -0.408,1.386l0.326,3.506l0.245,2.446l0,0.897l-0.082,0.856l-0.979,1.916l1.142,3.588l-0.326,1.998l0.245,5.586l0,0.326c-0.652,0.489 -1.087,1.047 -1.305,1.672c0.652,0.68 1.182,1.019 1.59,1.019l2.895,0.163l1.346,0.571l1.346,0l1.672,0.612l1.142,0.326l-0.082,0.326l1.019,-0.408l0.571,0l3.751,0.163l3.017,-0.815c2.175,-0.381 3.792,-1.142 4.852,-2.283l1.835,-1.998l1.264,-1.264l1.509,-2.895l0.979,-1.916l0.408,-2.773l0.367,-1.019Z" style="fill:#564536;fill-rule:nonzero;"/><path d="M252.21,407.394l-0.408,0.775l-0.652,0.979l-1.182,0.449l-1.672,0.897l-1.59,0.489c-1.006,0.408 -1.59,0.612 -1.753,0.612c-0.19,0 -0.374,-0.102 -0.55,-0.306c-0.177,-0.204 -0.265,-0.387 -0.265,-0.55c0,-0.272 0.136,-0.883 0.408,-1.835c0.136,-0.272 0.245,-0.748 0.326,-1.427l-0.815,0.53l-3.67,1.223c-0.734,0.353 -1.468,0.53 -2.202,0.53l-1.672,0l-1.916,0.897l-1.305,0.163l-3.792,0.775l-1.549,-0.245l-1.101,0.408l-0.775,0.163l-1.223,-0.082l-2.691,-0.571l-1.835,-0.163c-1.25,-0.163 -2.331,-0.591 -3.241,-1.284c-0.911,-0.693 -1.583,-1.583 -2.018,-2.671l-1.101,-0.408l-0.245,-1.019l-0.082,-0.734l-0.571,-1.916l1.509,-3.017l0.489,-1.346c0.163,-0.353 0.666,-0.87 1.509,-1.549l3.18,-2.609l1.346,-0.489l2.243,-0.938c0.027,0 0.082,0.007 0.163,0.02c0.082,0.014 0.163,0.034 0.245,0.061c0.544,-1.169 1.577,-1.753 3.099,-1.753l0.245,-0.245l0.856,0c0.353,-0.435 0.707,-0.734 1.06,-0.897c0.353,-0.163 1.019,-0.34 1.998,-0.53l5.097,-0.897l1.509,0.163l1.916,-0.408l3.425,-0.367c1.169,-0.272 1.753,-0.829 1.753,-1.672c0,-0.109 -0.027,-0.19 -0.082,-0.245l-0.408,-1.835l0.326,-2.65c-0.082,-0.571 -0.285,-0.985 -0.612,-1.244c-0.326,-0.258 -0.815,-0.428 -1.468,-0.51l-0.571,-0.938c-0.598,-0.979 -1.087,-1.611 -1.468,-1.896c-0.381,-0.285 -1.101,-0.537 -2.161,-0.754l-2.324,-0.53l-2.243,-0.082l-1.101,0.163c-0.245,-0.109 -0.435,-0.245 -0.571,-0.408c-0.136,-0.163 -0.245,-0.408 -0.326,-0.734l-1.101,0.489l-1.264,1.182l-3.996,1.998c-0.843,0.462 -1.4,0.911 -1.672,1.346l-0.571,0.815c-0.272,0.435 -0.639,0.652 -1.101,0.652l-0.815,-0.163l-1.182,-0.571l-1.264,-0.245c-0.408,-0.136 -0.815,-0.367 -1.223,-0.693c-0.408,-0.326 -0.612,-0.625 -0.612,-0.897c0,-0.163 0.027,-0.245 0.082,-0.245l0.693,-0.489l1.305,-1.019l1.427,-0.245l2.161,-1.101l2.691,-0.897l0.734,-0.163l1.753,-0.938l1.427,0.245l4.934,-1.06l2.079,0.082l1.59,0l1.672,0.571l4.852,0.938l0.734,0.408l0,0.571l-0.571,0.326c0.163,0.951 0.503,1.427 1.019,1.427c0.054,-0.027 0.095,-0.048 0.122,-0.061c0.027,-0.014 0.068,-0.02 0.122,-0.02l1.142,-0.489l0.163,0c0.272,0 0.449,0.136 0.53,0.408l0.815,1.509l0.856,0.652l0,0.938l-0.163,2.079c0,0.897 0.435,1.672 1.305,2.324l0.53,6.034l-1.101,1.509l1.264,1.468l0.082,0.53l-0.245,3.833l0.326,2.936l0,1.59l-0.571,0.163c0.054,0.68 0.095,1.114 0.122,1.305c0.027,0.19 0.122,0.469 0.285,0.836c0.163,0.367 0.353,0.795 0.571,1.284l0.571,1.305Zm-6.483,-7.094c-0.408,-0.353 -0.666,-0.652 -0.775,-0.897l0.163,-1.672l-0.326,-3.751l0.489,-1.101l-1.305,-0.734l-0.693,0.163l-3.751,-0.245l-1.753,0.082l-1.346,-0.938l-0.815,0.489l-2.243,0.082l-1.59,0.612l-0.938,-0.53l-1.142,0.693l-6.116,2.936l-1.346,0.979l-1.06,1.59l-1.427,0.856c-0.217,0.217 -0.326,0.462 -0.326,0.734c0,0 0.054,0.109 0.082,0.163l0.326,0.489l-0.082,0.367l0.897,3.67l-0.897,2.324l0.652,0.815l1.101,-1.305c0.381,0.326 0.734,0.598 1.06,0.815c0.326,0.217 0.72,0.401 1.182,0.55c0.462,0.15 1.047,0.306 1.753,0.469l0.856,1.142l2.813,0.285l0.775,-0.775l0.815,0.408l0.571,-0.326l0.449,-0.245c0.652,0.217 1.033,0.326 1.142,0.326c0.815,0 1.876,-0.381 3.18,-1.142c0.082,-0.054 0.19,-0.116 0.326,-0.183c0.136,-0.068 0.34,-0.183 0.612,-0.347c2.446,0 4.064,-0.503 4.852,-1.509l0.815,-1.06l1.998,-1.672l0.082,-0.489l-0.082,-0.53c0.408,-0.136 0.666,-0.299 0.775,-0.489c0.109,-0.19 0.19,-0.557 0.245,-1.101Z" style="fill:#564536;fill-rule:nonzero;"/><path d="M296.144,407.394l-0.408,0.775l-0.652,0.979l-1.182,0.449l-1.672,0.897l-1.59,0.489c-1.006,0.408 -1.59,0.612 -1.753,0.612c-0.19,0 -0.374,-0.102 -0.55,-0.306c-0.177,-0.204 -0.265,-0.387 -0.265,-0.55c0,-0.272 0.136,-0.883 0.408,-1.835c0.136,-0.272 0.245,-0.748 0.326,-1.427l-0.815,0.53l-3.67,1.223c-0.734,0.353 -1.468,0.53 -2.202,0.53l-1.672,0l-1.916,0.897l-1.305,0.163l-3.792,0.775l-1.549,-0.245l-1.101,0.408l-0.775,0.163l-1.223,-0.082l-2.691,-0.571l-1.835,-0.163c-1.25,-0.163 -2.331,-0.591 -3.241,-1.284c-0.911,-0.693 -1.583,-1.583 -2.018,-2.671l-1.101,-0.408l-0.245,-1.019l-0.082,-0.734l-0.571,-1.916l1.509,-3.017l0.489,-1.346c0.163,-0.353 0.666,-0.87 1.509,-1.549l3.18,-2.609l1.346,-0.489l2.243,-0.938c0.027,0 0.082,0.007 0.163,0.02c0.082,0.014 0.163,0.034 0.245,0.061c0.544,-1.169 1.577,-1.753 3.099,-1.753l0.245,-0.245l0.856,0c0.353,-0.435 0.707,-0.734 1.06,-0.897c0.353,-0.163 1.019,-0.34 1.998,-0.53l5.097,-0.897l1.509,0.163l1.916,-0.408l3.425,-0.367c1.169,-0.272 1.753,-0.829 1.753,-1.672c0,-0.109 -0.027,-0.19 -0.082,-0.245l-0.408,-1.835l0.326,-2.65c-0.082,-0.571 -0.285,-0.985 -0.612,-1.244c-0.326,-0.258 -0.815,-0.428 -1.468,-0.51l-0.571,-0.938c-0.598,-0.979 -1.087,-1.611 -1.468,-1.896c-0.381,-0.285 -1.101,-0.537 -2.161,-0.754l-2.324,-0.53l-2.243,-0.082l-1.101,0.163c-0.245,-0.109 -0.435,-0.245 -0.571,-0.408c-0.136,-0.163 -0.245,-0.408 -0.326,-0.734l-1.101,0.489l-1.264,1.182l-3.996,1.998c-0.843,0.462 -1.4,0.911 -1.672,1.346l-0.571,0.815c-0.272,0.435 -0.639,0.652 -1.101,0.652l-0.815,-0.163l-1.182,-0.571l-1.264,-0.245c-0.408,-0.136 -0.815,-0.367 -1.223,-0.693c-0.408,-0.326 -0.612,-0.625 -0.612,-0.897c0,-0.163 0.027,-0.245 0.082,-0.245l0.693,-0.489l1.305,-1.019l1.427,-0.245l2.161,-1.101l2.691,-0.897l0.734,-0.163l1.753,-0.938l1.427,0.245l4.934,-1.06l2.079,0.082l1.59,0l1.672,0.571l4.852,0.938l0.734,0.408l0,0.571l-0.571,0.326c0.163,0.951 0.503,1.427 1.019,1.427c0.054,-0.027 0.095,-0.048 0.122,-0.061c0.027,-0.014 0.068,-0.02 0.122,-0.02l1.142,-0.489l0.163,0c0.272,0 0.449,0.136 0.53,0.408l0.815,1.509l0.856,0.652l0,0.938l-0.163,2.079c0,0.897 0.435,1.672 1.305,2.324l0.53,6.034l-1.101,1.509l1.264,1.468l0.082,0.53l-0.245,3.833l0.326,2.936l0,1.59l-0.571,0.163c0.054,0.68 0.095,1.114 0.122,1.305c0.027,0.19 0.122,0.469 0.285,0.836c0.163,0.367 0.353,0.795 0.571,1.284l0.571,1.305Zm-6.483,-7.094c-0.408,-0.353 -0.666,-0.652 -0.775,-0.897l0.163,-1.672l-0.326,-3.751l0.489,-1.101l-1.305,-0.734l-0.693,0.163l-3.751,-0.245l-1.753,0.082l-1.346,-0.938l-0.815,0.489l-2.243,0.082l-1.59,0.612l-0.938,-0.53l-1.142,0.693l-6.116,2.936l-1.346,0.979l-1.06,1.59l-1.427,0.856c-0.217,0.217 -0.326,0.462 -0.326,0.734c0,0 0.054,0.109 0.082,0.163l0.326,0.489l-0.082,0.367l0.897,3.67l-0.897,2.324l0.652,0.815l1.101,-1.305c0.381,0.326 0.734,0.598 1.06,0.815c0.326,0.217 0.72,0.401 1.182,0.55c0.462,0.15 1.047,0.306 1.753,0.469l0.856,1.142l2.813,0.285l0.775,-0.775l0.815,0.408l0.571,-0.326l0.449,-0.245c0.652,0.217 1.033,0.326 1.142,0.326c0.815,0 1.876,-0.381 3.18,-1.142c0.082,-0.054 0.19,-0.116 0.326,-0.183c0.136,-0.068 0.34,-0.183 0.612,-0.347c2.446,0 4.064,-0.503 4.852,-1.509l0.815,-1.06l1.998,-1.672l0.082,-0.489l-0.082,-0.53c0.408,-0.136 0.666,-0.299 0.775,-0.489c0.109,-0.19 0.19,-0.557 0.245,-1.101Z" style="fill:#564536;fill-rule:nonzero;"/><path d="M350.352,390.963c0,0.652 -0.136,1.427 -0.408,2.324l-1.672,-0.082l-0.571,0.245l0.163,1.101c0.598,0.326 0.897,0.829 0.897,1.509c0,1.114 -0.109,1.835 -0.326,2.161l-2.161,2.854l-0.734,1.223l-1.59,1.672l-1.59,1.509l-0.856,0.449l-6.401,4.159l-3.18,1.019c-0.761,0.326 -1.346,0.489 -1.753,0.489c-0.109,0 -0.394,-0.082 -0.856,-0.245c-0.788,0.435 -1.699,0.652 -2.732,0.652l-1.916,-0.082l-3.71,0l-1.305,-0.326l-4.852,-0.326l-2.691,-1.509l-1.142,0.245l0.489,0.408l-1.182,-0.163l-1.142,-0.163l-3.18,-2.324l-2.161,-0.285l-2.283,-1.386c-0.951,-0.68 -1.427,-1.155 -1.427,-1.427c0,-0.544 0.217,-1.216 0.652,-2.018c0.435,-0.802 0.951,-1.529 1.549,-2.181c0.761,-0.897 1.617,-1.413 2.569,-1.549l0.612,3.058c0.571,0.272 0.938,0.503 1.101,0.693c0.163,0.19 0.313,0.571 0.449,1.142l0.938,-0.163l0.815,0.53l0.693,0.979l2.732,0.775l2.773,1.223l5.586,1.182c0.951,0.598 1.509,0.897 1.672,0.897c0.381,0 0.612,-0.272 0.693,-0.815l0.571,-0.082l5.097,0.326l1.59,-0.815l0.897,0.326l1.509,-0.326l1.753,-0.612c0.979,-0.326 1.672,-0.761 2.079,-1.305l1.182,-1.59l1.427,-1.509c0.217,-0.381 0.435,-1.019 0.652,-1.916c1.06,0 1.59,-0.34 1.59,-1.019l-0.163,-0.815l-0.082,-1.019l0.652,-0.734l1.264,-3.792l0.408,0l-0.163,-2.406l-0.815,-2.243l-0.326,-0.938l-1.182,-0.082l-3.017,-1.835l-3.67,-1.427l-0.815,-0.897l-1.182,-0.693l-0.856,0.449l-0.245,0.408l-5.586,-0.245l-1.264,-1.509l-0.979,1.264l-0.938,-0.204l-2.324,-0.489c-1.549,-0.299 -2.739,-0.578 -3.568,-0.836c-0.829,-0.258 -1.529,-0.591 -2.1,-0.999l0.082,-0.897l-1.427,-0.612c0.027,0 -0.204,0.054 -0.693,0.163c-0.979,-0.734 -1.611,-1.312 -1.896,-1.733c-0.285,-0.421 -0.618,-1.257 -0.999,-2.508l0.326,-0.082l-0.815,-0.938l-0.122,-1.305l-0.163,-1.346l0,-0.408l0.53,-1.672l0.489,-0.938l0.489,-1.264l1.346,-0.979c0.625,-0.462 0.938,-1.25 0.938,-2.365l0.734,-0.571l4.444,-3.343l1.916,-1.142l3.14,-1.59l4.363,-1.427l1.019,-0.326l1.06,-0.163l2.528,-0.285l1.223,-0.489l4.118,0.489l1.835,-0.082l1.142,0.449l2.039,0.489c1.386,0.353 2.079,0.802 2.079,1.346c0,0.217 -0.027,0.408 -0.082,0.571c-0.544,0.19 -0.829,0.299 -0.856,0.326l-1.06,0.938c-0.652,0.462 -1.74,0.897 -3.262,1.305l-0.856,-0.489l-2.161,-1.59l-1.182,-0.163l-3.343,-0.652l-1.916,0.082l-2.243,0.082l-3.996,2.079l-2.854,1.427l-1.916,1.509l-0.938,1.06l-1.753,3.099l-1.59,1.101l-0.326,0.979l1.101,0.612c-0.109,0.272 -0.163,0.571 -0.163,0.897c0,0.272 0.136,0.72 0.408,1.346l-1.59,0.815l0.408,0.938l0.856,0.326l1.509,0.245l1.59,1.346l3.343,1.509l0.897,0.815l2.854,-0.245l2.487,0.245l0.163,0.53l1.019,-0.163l1.427,-0.163c0.272,0 0.462,0.027 0.571,0.082l2.161,0.489l1.101,0.245c0.19,1.278 0.544,1.916 1.06,1.916c0.054,-0.027 0.102,-0.048 0.143,-0.061c0.041,-0.014 0.088,-0.02 0.143,-0.02l1.835,-1.182l2.161,0.163l1.59,-0.082c0.87,0 1.699,0.34 2.487,1.019l2.079,1.835l0.102,0c0.041,0 0.15,-0.007 0.326,-0.02c0.177,-0.014 0.319,-0.034 0.428,-0.061l0.082,0c0.381,0 1.332,0.951 2.854,2.854l0.652,0.815l0.163,1.101l0.408,3.833Z" style="fill:#564536;fill-rule:nonzero;"/><path d="M367.376,356.55l-0.163,1.264l-0.245,1.346l-0.815,1.386l0.571,4.281c0,0.571 -0.313,1.495 -0.938,2.773l0,0.734l0.612,0.245l-0.082,1.264l0.163,3.343c0,0.625 -0.054,1.08 -0.163,1.366c-0.109,0.285 -0.367,0.632 -0.775,1.04l0.612,0.938l-0.082,1.223l0,1.101l-0.856,1.427l0.408,1.06c0.245,0.598 0.367,0.992 0.367,1.182l-0.204,2.243l0,2.446l-0.571,1.916l0,0.326c0,0.408 0.217,0.748 0.652,1.019l0,1.509l0.122,0.897l0.082,1.753l0,0.652l-0.775,2.283l0.775,0.408l-0.285,0.652l0.367,2.283l-0.163,3.833l0.245,1.59l0.082,1.06c-2.474,2.229 -4.172,3.343 -5.097,3.343l-0.489,-0.082l-0.122,0.449l-1.468,0.326l-0.693,-1.019c0.516,-0.951 0.775,-1.699 0.775,-2.243l0,-0.938l1.06,-3.588l0,-2.65l1.835,-0.326l0.082,-0.367c0,-0.245 -0.136,-0.598 -0.408,-1.06l-0.979,0.082l-0.204,-0.163l-0.245,0.245l0.163,-1.346l0.082,-1.835l0.285,-3.017l-0.082,-1.59l0.734,-1.142c-0.489,-0.462 -0.781,-0.822 -0.877,-1.08c-0.095,-0.258 -0.143,-0.741 -0.143,-1.447c0,-0.707 0.204,-1.454 0.612,-2.243l-0.612,-0.652l0,-1.182l0.082,-3.914c0,-0.245 -0.027,-0.421 -0.082,-0.53l-0.163,-0.815l-0.082,-0.856c0.353,-0.326 0.53,-0.707 0.53,-1.142l-0.775,-0.856l0.326,-0.652l-0.326,-3.017l0.489,-1.509l0,-0.163c0,-0.435 -0.272,-0.911 -0.815,-1.427l-0.082,-0.815l-0.245,-3.588l0.245,-1.509l-0.571,-0.856l0.082,-1.305l0,-2.365c0.299,-0.489 0.707,-0.734 1.223,-0.734l2.12,-0.163c0.326,-0.054 0.761,-0.584 1.305,-1.59l1.427,-0.408l1.346,-0.53c-0.054,0 0.136,0.054 0.571,0.163c0.163,0.598 0.245,1.019 0.245,1.264Z" style="fill:#564536;fill-rule:nonzero;"/><path d="M436.874,354.634c0,0.435 -0.19,0.992 -0.571,1.672l-0.489,2.487l-0.285,1.753l-1.223,4.363l-0.408,1.101l-0.938,-0.163l-0.652,0.163l-0.163,0.979l1.142,0.408c-0.054,0.734 -0.129,1.216 -0.224,1.447c-0.095,0.231 -0.347,0.51 -0.754,0.836c0,1.631 -0.394,2.936 -1.182,3.914l-1.264,1.835l0.082,1.264l-0.326,1.346l-0.245,1.305l-0.938,1.998l0,1.101c0,0.381 -0.272,1.223 -0.815,2.528l-0.489,1.223l-0.53,-0.163c-0.163,0.462 -0.435,0.802 -0.815,1.019l0.163,1.305l0.489,0.204l-0.245,1.142l-1.264,3.18l-0.979,1.835l-0.082,1.916l-0.163,1.101l0.571,1.509l-0.489,0.815l-1.182,1.672l-0.163,1.672l-0.326,1.019l-0.163,1.142l-1.019,1.509l-0.408,1.916c-0.163,0.707 -0.462,1.278 -0.897,1.712c-0.435,0.435 -0.924,0.652 -1.468,0.652l-0.979,-0.367c-0.082,-0.625 -0.163,-0.979 -0.245,-1.06l-0.856,-1.509l-0.652,-3.67l-0.571,-1.835l-0.612,-0.082l0.082,-1.916l0.856,-0.245c-0.217,-0.516 -0.449,-0.89 -0.693,-1.121c-0.245,-0.231 -0.652,-0.415 -1.223,-0.55l0.163,-1.957l-0.163,-1.142c0.299,-0.109 0.544,-0.313 0.734,-0.612l-0.408,-0.489l-0.245,-0.082l-0.326,-0.815l-1.101,-4.444l-1.346,-2.324l-0.897,-4.526l-1.346,-2.732l-0.612,-0.856c0.326,-0.027 0.578,-0.109 0.754,-0.245c0.177,-0.136 0.347,-0.381 0.51,-0.734c-0.326,-0.353 -0.625,-0.53 -0.897,-0.53c-0.163,0 -0.306,0.007 -0.428,0.02c-0.122,0.014 -0.265,0.034 -0.428,0.061l-0.163,-0.571l0.082,-2.161l-0.571,-1.509l-0.082,-0.775c-0.217,-0.381 -0.503,-0.571 -0.856,-0.571c-0.217,0 -0.381,0.109 -0.489,0.326l-1.59,5.79l-0.815,0.815l-0.856,1.346l-0.815,2.079l0.082,2.079c-0.054,0.924 -0.557,1.617 -1.509,2.079l-0.082,0.938l-0.489,1.019l0,2.324l-0.612,0.815l-0.326,0.938l0.245,0.245l-0.245,0.938l-1.509,4.811l-0.489,2.202l-0.326,1.06c-0.109,0.435 -0.163,0.775 -0.163,1.019c0,0.381 0.163,0.883 0.489,1.509c-0.462,0.163 -0.775,0.326 -0.938,0.489c-0.163,0.163 -0.299,0.435 -0.408,0.815l0.245,0.285l-0.489,1.305l-0.408,2.691c0,0.136 -0.258,0.408 -0.775,0.815l-0.652,0.53l-0.082,-0.367c-0.544,-0.408 -0.931,-0.815 -1.162,-1.223c-0.231,-0.408 -0.51,-1.169 -0.836,-2.283l-0.938,-2.976l-0.979,-4.526c-0.381,-1.006 -0.802,-1.889 -1.264,-2.65l0.408,-0.856l0.856,-1.509c0,-0.19 -0.258,-0.489 -0.775,-0.897l-0.163,0.408l-1.427,-0.163l-0.326,-1.101l-0.326,-2.569l-0.326,-0.775l0.652,-2.079l-0.245,-0.652l-1.346,-0.082l-1.59,-3.873l0.326,-0.734l-0.082,-0.571l-0.082,-0.938l-1.142,0.163l-0.367,-1.223l-0.815,-1.346l-1.427,-3.67l-0.897,-0.938l-0.856,-3.017l-0.489,-0.734l0.326,-1.182c0,-0.381 -0.109,-0.68 -0.326,-0.897l-1.182,-1.101l-1.264,-4.403l-1.916,-2.773c0,-0.054 -0.007,-0.102 -0.02,-0.143c-0.014,-0.041 -0.034,-0.075 -0.061,-0.102c0,-0.326 0.449,-0.992 1.346,-1.998l0.938,0.082l0.408,-0.612l0.897,-0.571l1.427,-0.734l1.101,-0.775c0.815,0.544 1.291,1.182 1.427,1.916l1.223,5.015l0.367,1.019c-0.652,0.381 -1.182,0.571 -1.59,0.571l-0.775,-0.082c0.163,1.06 0.829,1.59 1.998,1.59l0.856,-0.082l0.326,1.264l0.571,1.753l0.693,1.06l0.163,1.019c0.598,0.734 0.897,1.318 0.897,1.753c0,0.353 -0.353,0.652 -1.06,0.897c0.272,0.516 0.408,0.938 0.408,1.264c0,0.381 -0.136,0.775 -0.408,1.182l0.815,0.652l1.182,0.326l0.082,1.346l1.346,1.427l0.408,1.427l0.408,1.346l-0.489,0.489c0.734,0.516 1.237,1.101 1.509,1.753c0.87,1.957 1.645,4.852 2.324,8.685c0.435,2.175 1.047,3.262 1.835,3.262c0.054,0 0.082,-0.027 0.082,-0.082l0.163,0l0.938,-1.59l1.142,-1.182l0.53,-0.815c-0.462,-0.462 -0.693,-0.883 -0.693,-1.264c0,-0.272 0.054,-0.462 0.163,-0.571l2.039,-3.343l0.489,-2.528l1.346,-3.914l0.082,-1.346l0.489,-1.427l0.082,-3.14l0.652,-1.101l0.285,-1.59l0.652,-1.427l-0.082,-1.672l0.652,-3.017l0.693,-4.403l0.815,-0.775l0.612,-0.979l-0.367,-0.938l0.449,-0.979c0.87,0 1.672,-0.34 2.406,-1.019l1.509,0.326l0.652,1.182l0.938,0.856c0.272,0.217 0.489,1.264 0.652,3.14l0.082,1.019l-1.06,0.489c0,0.897 0.116,1.488 0.347,1.774c0.231,0.285 0.7,0.428 1.407,0.428l0.571,3.221l0.245,0.775l1.264,2.569l0.082,1.019l0,0.326l-0.612,0.489l0.938,1.101c-0.19,0.489 -0.557,0.761 -1.101,0.815c0.245,0.544 0.462,0.883 0.652,1.019c0.19,0.136 0.53,0.245 1.019,0.326c0.652,1.359 1.019,3.031 1.101,5.015l-0.571,0l0.408,0.856l0.734,0.979l0.245,3.099l1.182,3.751l0.652,2.609c0.353,0.489 0.829,0.788 1.427,0.897l0.245,1.019l0.367,-1.101l1.672,-3.996l0.082,-0.775l1.142,-1.835l0.775,-1.223l-0.775,-0.938l0.245,-0.652l0.775,-0.612l1.753,-7.176l0.734,-1.142l0.693,-4.281l0.897,-3.588l0.163,-0.571c0.435,-0.163 0.748,-0.584 0.938,-1.264l0.326,-0.856l-0.734,-0.979l0.734,-2.528l0.245,-1.549l-0.082,-1.672l0.938,-0.856l1.223,-1.59l3.262,-1.59l0.53,-0.897l0.408,0c0.245,0 0.428,0.048 0.55,0.143c0.122,0.095 0.183,0.238 0.183,0.428Z" style="fill:#564536;fill-rule:nonzero;"/><path d="M492.102,408.006c0,0.109 -0.054,0.272 -0.163,0.489l-1.59,1.346l-1.672,2.406l-1.346,0l-0.815,0.163l-0.082,-0.734l-0.489,-1.019l0.082,-0.815l-0.082,-0.775c-0.408,-0.761 -0.639,-1.427 -0.693,-1.998l-0.652,0l-0.326,-0.897l-1.427,-2.773l-0.245,-1.427l-2.079,-3.588c-0.245,-0.489 -0.367,-1.047 -0.367,-1.672c0.027,-0.109 0.048,-0.204 0.061,-0.285c0.014,-0.082 0.02,-0.204 0.02,-0.367c-0.489,-0.245 -0.87,-0.584 -1.142,-1.019c-0.979,-1.631 -1.563,-2.963 -1.753,-3.996l-1.427,-0.652c-0.245,1.223 -0.72,1.835 -1.427,1.835l-0.163,0l-4.24,-0.775l-1.509,0.082l-1.101,-0.163l-5.831,0.775l-3.425,-0.163l-1.835,0.489l-1.427,-0.489l-1.101,-0.285c-0.353,0.462 -0.652,0.761 -0.897,0.897c-0.245,0.136 -0.557,0.204 -0.938,0.204l-0.245,0l-3.588,-0.245l-1.346,0.326l-1.753,0.082c-0.598,0.136 -1.264,1.06 -1.998,2.773l-0.734,1.59l-0.449,0.163c-0.788,2.093 -1.808,4.064 -3.058,5.912l-0.082,0.856l-0.612,0.897l-2.243,5.015c-0.163,0.489 -0.775,0.856 -1.835,1.101l0.082,0.652c-0.326,0.054 -0.775,0.082 -1.346,0.082c-0.788,0 -1.617,-0.299 -2.487,-0.897l1.59,-2.773l1.142,-1.427l0.938,-1.509l0.571,-0.897l0.571,-0.775l0,-0.326c1.114,-0.163 1.672,-0.666 1.672,-1.509l0,-0.979l1.264,-1.509l1.753,-3.833l1.019,-1.427l1.142,-2.528l1.346,-2.569l1.59,-2.691l1.672,-1.59c0.109,-0.109 0.163,-0.245 0.163,-0.408c0,-0.217 -0.136,-0.462 -0.408,-0.734c0.489,-0.353 0.843,-0.646 1.06,-0.877c0.217,-0.231 0.421,-0.55 0.612,-0.958l-0.489,-0.775l0.489,-0.815l0.652,-1.916c0.082,-0.163 0.421,-0.503 1.019,-1.019l-0.082,-0.408l1.835,-4.689l1.427,-3.833c0.272,-0.707 0.883,-1.577 1.835,-2.609l-0.326,-0.897l0.245,-1.101c0.163,-0.788 0.319,-1.332 0.469,-1.631c0.15,-0.299 0.408,-0.516 0.775,-0.652c0.367,-0.136 0.836,-0.258 1.407,-0.367l0.245,-0.612l-0.408,-1.223c-0.109,-0.326 -0.163,-0.557 -0.163,-0.693c0,-0.381 0.163,-0.652 0.489,-0.815l2.773,-1.835l0.571,-1.264c0.571,-0.707 1.332,-1.101 2.283,-1.182l0.489,1.672l0.489,0l-0.163,0.449l0.571,1.223l1.182,1.509l1.509,2.773l0.815,2.243l1.019,1.835l-1.019,0.326c0,0.299 0.122,0.557 0.367,0.775c0.979,0.571 1.468,1.101 1.468,1.59l-0.082,0.734l0.938,1.019l1.101,1.835l0.571,0.979l0.082,0.326l-0.326,0.775l0.163,0.815l0.571,0.775l1.182,0.979l1.427,2.854l0.734,1.264l0,0.979c1.06,0.924 1.59,1.631 1.59,2.12c0,0.054 -0.054,0.245 -0.163,0.571l0.815,0.815l1.835,3.099c0.163,0.245 0.292,0.455 0.387,0.632c0.095,0.177 0.258,0.462 0.489,0.856c0.231,0.394 0.387,0.673 0.469,0.836c0.462,0.707 0.727,1.169 0.795,1.386c0.068,0.217 0.116,0.598 0.143,1.142c0.951,0.462 1.427,0.992 1.427,1.59c0,0.054 -0.041,0.109 -0.122,0.163l-0.163,1.753c0,-0.054 0.054,0.136 0.163,0.571l1.672,0.856l0.53,0.734l0.245,0.775c0.109,0.408 0.557,0.815 1.346,1.223l0,0.938l1.386,1.427l1.346,2.243l0.693,0.815c0.326,0.408 0.584,0.843 0.775,1.305c0.19,0.462 0.285,0.788 0.285,0.979Zm-16.758,-20.957l-0.367,-0.326l0.163,-0.285l-0.163,-0.408l-0.815,0c-0.326,-0.381 -0.584,-1.413 -0.775,-3.099l-0.082,-0.815l-1.549,-0.408l-1.957,-3.873l-0.571,0l-2.487,-4.893l0.326,-0.938l-0.245,-1.019l-1.916,-0.979l-2.936,-5.831c-0.109,-0.299 -0.748,-0.924 -1.916,-1.876l-0.489,0.367l-0.53,1.672l-0.326,0.082c-0.326,1.142 -0.571,1.848 -0.734,2.12c-0.163,0.272 -0.503,0.652 -1.019,1.142c-0.707,0.625 -1.101,1.264 -1.182,1.916l-0.163,0.979l-1.835,4.037c-0.19,0.489 -0.367,0.911 -0.53,1.264c-0.163,0.353 -0.272,0.584 -0.326,0.693c-0.054,0.109 -0.15,0.258 -0.285,0.449c-0.136,0.19 -0.285,0.353 -0.449,0.489l-0.326,0.856c-0.217,0.544 -0.394,0.877 -0.53,0.999c-0.136,0.122 -0.435,0.197 -0.897,0.224l-0.082,0.938c-0.109,1.386 -0.333,2.406 -0.673,3.058c-0.34,0.652 -0.917,1.25 -1.733,1.794l0.734,1.142c-0.326,0.027 -0.571,0.122 -0.734,0.285c-0.163,0.163 -0.299,0.435 -0.408,0.815l-0.285,1.019l0.693,0.082l1.346,0.408l1.06,-0.163l0.938,0.326l0.163,-0.326l0.734,-0.082l5.26,0.326l3.343,-0.245l1.346,0.571c0.19,-0.19 0.333,-0.306 0.428,-0.347c0.095,-0.041 0.387,-0.082 0.877,-0.122c0.489,-0.041 1.25,-0.129 2.283,-0.265l1.101,-0.163l-0.163,0.408l0.326,0.163c0.245,0 0.544,-0.217 0.897,-0.652l1.101,-0.082c1.441,-0.136 2.528,-0.238 3.262,-0.306c0.734,-0.068 1.182,-0.122 1.346,-0.163c0.163,-0.041 0.415,-0.15 0.754,-0.326c0.34,-0.177 0.673,-0.387 0.999,-0.632Z" style="fill:#564536;fill-rule:nonzero;"/></g></svg>